<?xml version="1.0" standalone="no"?><!DOCTYPE svg PUBLIC "-//W3C//DTD SVG 1.1//EN" "http://www.w3.org/Graphics/SVG/1.1/DTD/svg11.dtd"><svg t="1572326933053" class="icon" viewBox="0 0 1184 1024" version="1.1" xmlns="http://www.w3.org/2000/svg" p-id="14489" xmlns:xlink="http://www.w3.org/1999/xlink" width="231.25" height="200"><defs><style type="text/css"></style></defs><path d="M149.593043 1024c-81.92 0-149.593043-65.892174-149.593043-149.593043v-213.704348c0-81.92 65.892174-149.593043 149.593043-149.593044 81.92 0 149.593043 65.892174 149.593044 149.593044v213.704348c-1.78087 83.70087-67.673043 149.593043-149.593044 149.593043zM591.248696 1024c-81.92 0-149.593043-65.892174-149.593044-149.593043V388.229565c0-81.92 65.892174-149.593043 149.593044-149.593043 81.92 0 149.593043 65.892174 149.593043 149.593043v487.958261c0 81.92-67.673043 147.812174-149.593043 147.812174zM1034.685217 1024c-81.92 0-149.593043-65.892174-149.593043-149.593043V149.593043c0-81.92 65.892174-149.593043 149.593043-149.593043 81.92 0 149.593043 65.892174 149.593044 149.593043v726.594783c-1.78087 81.92-67.673043 147.812174-149.593044 147.812174z" fill="#ffffff" p-id="14490"></path></svg>